<mxfile host="app.diagrams.net" modified="2023-09-22T20:32:21.700Z" agent="Mozilla/5.0 (Windows NT 10.0; Win64; x64) AppleWebKit/537.36 (KHTML, like Gecko) Chrome/116.0.0.0 Safari/537.36" etag="-0BqLuUmA1oGoje0TxBS" version="21.8.1" type="device">
  <diagram name="PÃ¡gina-1" id="TdubvRNMdldjJ8onDtpy">
    <mxGraphModel dx="794" dy="456" grid="1" gridSize="10" guides="1" tooltips="1" connect="1" arrows="1" fold="1" page="1" pageScale="1" pageWidth="827" pageHeight="1169" math="0" shadow="0">
      <root>
        <mxCell id="0" />
        <mxCell id="1" parent="0" />
        <mxCell id="xJdjnt_t-pVBK9aQdVWy-1" value="" style="rounded=0;whiteSpace=wrap;html=1;" vertex="1" parent="1">
          <mxGeometry x="270" y="380" width="330" height="440" as="geometry" />
        </mxCell>
        <mxCell id="xJdjnt_t-pVBK9aQdVWy-2" style="edgeStyle=orthogonalEdgeStyle;rounded=0;orthogonalLoop=1;jettySize=auto;html=1;exitX=1;exitY=0.3333333333333333;exitDx=0;exitDy=0;exitPerimeter=0;entryX=0;entryY=0.5;entryDx=0;entryDy=0;" edge="1" parent="1" source="xJdjnt_t-pVBK9aQdVWy-5" target="xJdjnt_t-pVBK9aQdVWy-9">
          <mxGeometry relative="1" as="geometry">
            <Array as="points">
              <mxPoint x="100" y="470" />
            </Array>
          </mxGeometry>
        </mxCell>
        <mxCell id="xJdjnt_t-pVBK9aQdVWy-3" style="edgeStyle=orthogonalEdgeStyle;rounded=0;orthogonalLoop=1;jettySize=auto;html=1;exitX=1;exitY=0.3333333333333333;exitDx=0;exitDy=0;exitPerimeter=0;entryX=0;entryY=0.5;entryDx=0;entryDy=0;" edge="1" parent="1" source="xJdjnt_t-pVBK9aQdVWy-8" target="xJdjnt_t-pVBK9aQdVWy-13">
          <mxGeometry relative="1" as="geometry">
            <Array as="points">
              <mxPoint x="100" y="640" />
              <mxPoint x="160" y="640" />
              <mxPoint x="160" y="600" />
              <mxPoint x="294" y="600" />
            </Array>
          </mxGeometry>
        </mxCell>
        <mxCell id="xJdjnt_t-pVBK9aQdVWy-4" style="edgeStyle=orthogonalEdgeStyle;rounded=0;orthogonalLoop=1;jettySize=auto;html=1;exitX=1;exitY=0.3333333333333333;exitDx=0;exitDy=0;exitPerimeter=0;entryX=0;entryY=0.5;entryDx=0;entryDy=0;" edge="1" parent="1" source="xJdjnt_t-pVBK9aQdVWy-8" target="xJdjnt_t-pVBK9aQdVWy-14">
          <mxGeometry relative="1" as="geometry">
            <Array as="points">
              <mxPoint x="100" y="680" />
              <mxPoint x="160" y="680" />
              <mxPoint x="160" y="720" />
            </Array>
          </mxGeometry>
        </mxCell>
        <mxCell id="xJdjnt_t-pVBK9aQdVWy-5" value="Persona" style="shape=umlActor;verticalLabelPosition=bottom;verticalAlign=top;html=1;outlineConnect=0;" vertex="1" parent="1">
          <mxGeometry x="70" y="510" width="30" height="60" as="geometry" />
        </mxCell>
        <mxCell id="xJdjnt_t-pVBK9aQdVWy-8" value="Operador" style="shape=umlActor;verticalLabelPosition=bottom;verticalAlign=top;html=1;outlineConnect=0;" vertex="1" parent="1">
          <mxGeometry x="70" y="640" width="30" height="60" as="geometry" />
        </mxCell>
        <mxCell id="xJdjnt_t-pVBK9aQdVWy-9" value="" style="ellipse;whiteSpace=wrap;html=1;" vertex="1" parent="1">
          <mxGeometry x="294" y="430" width="120" height="80" as="geometry" />
        </mxCell>
        <mxCell id="xJdjnt_t-pVBK9aQdVWy-10" value="Reciclar" style="text;html=1;strokeColor=none;fillColor=none;align=center;verticalAlign=middle;whiteSpace=wrap;rounded=0;" vertex="1" parent="1">
          <mxGeometry x="324" y="455" width="60" height="30" as="geometry" />
        </mxCell>
        <mxCell id="xJdjnt_t-pVBK9aQdVWy-13" value="Solicitar listado" style="ellipse;whiteSpace=wrap;html=1;" vertex="1" parent="1">
          <mxGeometry x="294" y="560" width="120" height="80" as="geometry" />
        </mxCell>
        <mxCell id="xJdjnt_t-pVBK9aQdVWy-14" value="Actualizar montos" style="ellipse;whiteSpace=wrap;html=1;" vertex="1" parent="1">
          <mxGeometry x="294" y="680" width="120" height="80" as="geometry" />
        </mxCell>
      </root>
    </mxGraphModel>
  </diagram>
</mxfile>
